<mxfile host="app.diagrams.net" modified="2024-06-03T13:49:13.592Z" agent="Mozilla/5.0 (Windows NT 10.0; Win64; x64; rv:126.0) Gecko/20100101 Firefox/126.0" etag="v0Zk-9SFk542drzTKSDA" version="24.4.13" type="device">
  <diagram name="Page-1" id="azMvJOTC0xZDQvXUZxU9">
    <mxGraphModel dx="1050" dy="538" grid="1" gridSize="10" guides="1" tooltips="1" connect="1" arrows="1" fold="1" page="1" pageScale="1" pageWidth="850" pageHeight="1100" math="0" shadow="0">
      <root>
        <mxCell id="0" />
        <mxCell id="1" parent="0" />
        <mxCell id="Tys-5YWx5h9Q3Cw2X89z-12" value="" style="ellipse;shape=cloud;whiteSpace=wrap;html=1;" vertex="1" parent="1">
          <mxGeometry x="270" y="20" width="540" height="440" as="geometry" />
        </mxCell>
        <mxCell id="Tys-5YWx5h9Q3Cw2X89z-13" style="edgeStyle=orthogonalEdgeStyle;rounded=0;orthogonalLoop=1;jettySize=auto;html=1;entryX=0.5;entryY=0;entryDx=0;entryDy=0;" edge="1" parent="1" source="Tys-5YWx5h9Q3Cw2X89z-1" target="Tys-5YWx5h9Q3Cw2X89z-10">
          <mxGeometry relative="1" as="geometry" />
        </mxCell>
        <mxCell id="Tys-5YWx5h9Q3Cw2X89z-1" value="Razvojni sustav ESP32-C3-DevKitM-1" style="rounded=1;whiteSpace=wrap;html=1;fillColor=#eeeeee;strokeColor=#36393d;" vertex="1" parent="1">
          <mxGeometry x="120" y="200" width="140" height="80" as="geometry" />
        </mxCell>
        <mxCell id="Tys-5YWx5h9Q3Cw2X89z-2" value="" style="shape=flexArrow;endArrow=classic;html=1;rounded=0;exitX=1;exitY=0.5;exitDx=0;exitDy=0;fillColor=#f5f5f5;strokeColor=#666666;entryX=0;entryY=0.5;entryDx=0;entryDy=0;" edge="1" parent="1" source="Tys-5YWx5h9Q3Cw2X89z-1" target="Tys-5YWx5h9Q3Cw2X89z-3">
          <mxGeometry width="50" height="50" relative="1" as="geometry">
            <mxPoint x="400" y="300" as="sourcePoint" />
            <mxPoint x="340" y="240" as="targetPoint" />
          </mxGeometry>
        </mxCell>
        <mxCell id="Tys-5YWx5h9Q3Cw2X89z-14" style="edgeStyle=orthogonalEdgeStyle;rounded=0;orthogonalLoop=1;jettySize=auto;html=1;entryX=0;entryY=0.5;entryDx=0;entryDy=0;" edge="1" parent="1" source="Tys-5YWx5h9Q3Cw2X89z-3" target="Tys-5YWx5h9Q3Cw2X89z-8">
          <mxGeometry relative="1" as="geometry" />
        </mxCell>
        <mxCell id="Tys-5YWx5h9Q3Cw2X89z-3" value="&lt;div&gt;Pohrana podataka&lt;br&gt;&lt;/div&gt;" style="rounded=1;whiteSpace=wrap;html=1;fillColor=#cdeb8b;strokeColor=#36393d;" vertex="1" parent="1">
          <mxGeometry x="380" y="185" width="170" height="110" as="geometry" />
        </mxCell>
        <mxCell id="Tys-5YWx5h9Q3Cw2X89z-8" value="&lt;div&gt;Web-aplikacija&lt;/div&gt;" style="rounded=0;whiteSpace=wrap;html=1;fillColor=#fff2cc;strokeColor=#d6b656;" vertex="1" parent="1">
          <mxGeometry x="590" y="180" width="120" height="120" as="geometry" />
        </mxCell>
        <mxCell id="Tys-5YWx5h9Q3Cw2X89z-10" value="Senzorska mreÅ¾a" style="rounded=0;whiteSpace=wrap;html=1;fillColor=#cce5ff;strokeColor=#36393d;" vertex="1" parent="1">
          <mxGeometry x="130" y="320" width="120" height="60" as="geometry" />
        </mxCell>
        <mxCell id="Tys-5YWx5h9Q3Cw2X89z-15" value="MQTT protokol" style="text;html=1;align=center;verticalAlign=middle;whiteSpace=wrap;rounded=0;" vertex="1" parent="1">
          <mxGeometry x="260" y="210" width="100" height="30" as="geometry" />
        </mxCell>
        <mxCell id="Tys-5YWx5h9Q3Cw2X89z-16" value="&lt;font style=&quot;font-size: 14px;&quot;&gt;Platforma AWS&lt;/font&gt;" style="text;html=1;align=center;verticalAlign=middle;whiteSpace=wrap;rounded=0;" vertex="1" parent="1">
          <mxGeometry x="450" y="100" width="110" height="40" as="geometry" />
        </mxCell>
      </root>
    </mxGraphModel>
  </diagram>
</mxfile>
